<svg xmlns="http://www.w3.org/2000/svg" viewBox="0 0 128 128" id="benefits"><path d="M114.83 26.7a2 2 0 0 0-.88-1.25l-9.11-5.73-1.25 3.94 6.53 4.11-15.77 25-4.78 15.13 25-39.7a2 2 0 0 0 .26-1.5zM25 19.72l-9.11 5.73a2 2 0 0 0-.63 2.76l25 39.69-4.73-15.1-15.77-25 6.53-4.11zM42.45 5l-15 4.75a2 2 0 0 0-1.3 2.51l16.3 51.43V50.45L30.57 13l11.88-3.8zm59.98 4.75L88.67 5.4v4.19L99.32 13 88.67 46.54v13.24l15.06-47.52a2 2 0 0 0-1.3-2.51zM2 128h14a2 2 0 0 0 2-2v-2c2.58 1.8 6.6 4 10.82 4H49a2 2 0 0 0 1.12-.34c1.31-.88 5.58-4 5.71-7.3a3.9 3.9 0 0 0-.06-.87 8.92 8.92 0 0 0 3.23-3.64 8 8 0 0 0 .49-5.15 7.65 7.65 0 0 0 3.06-3.87 8.28 8.28 0 0 0-.79-6.53 7.87 7.87 0 0 0 1.71-4.79A9.89 9.89 0 0 0 60.76 89a2 2 0 0 0-1.42-.59H40.26c2.19-9.68-1.23-16.5-1.39-16.81a2 2 0 0 0-.19-.31c-3.13-4.06-5.94-5.73-8.6-5.11-3.56.83-4.58 5.42-4.69 5.94a2 2 0 0 0 0 .35C25.12 83.35 20.86 89.66 18 92.7V91a2 2 0 0 0-2-2H2a2 2 0 0 0-2 2v35a2 2 0 0 0 2 2zm2-35h10v31H4zm122-3h-14a2 2 0 0 0-2 2v.12c-2.84-3.23-6.63-9.42-6.85-19.7a2 2 0 0 0 0-.35c-.15-.49-1.15-5.07-4.73-5.91-2.67-.62-5.47 1.05-8.6 5.11a2 2 0 0 0-.19.31c-.16.31-3.58 7.13-1.39 16.81H69.17a2 2 0 0 0-1.42.59A9.89 9.89 0 0 0 65 95.51a7.87 7.87 0 0 0 1.71 4.79 8.28 8.28 0 0 0-.79 6.53A7.64 7.64 0 0 0 69 110.7a8 8 0 0 0 .49 5.15 8.91 8.91 0 0 0 3.22 3.64 3.91 3.91 0 0 0-.06.87c.14 3.29 4.41 6.42 5.71 7.3a2 2 0 0 0 1.12.34h20.2c4 0 7.73-1.93 10.32-3.66V126a2 2 0 0 0 2 2h14a2 2 0 0 0 2-2V92a2 2 0 0 0-2-2zm-2 34h-10V94h10z"></path><circle cx="119" cy="100.1" r="2"></circle><circle cx="9" cy="100.1" r="2"></circle><path d="M56 40.05a9.59 9.59 0 1 0 9.59-9.58A9.6 9.6 0 0 0 56 40.05Zm13.47-3.94c1.55 0 2.88 1 3.13 3.2h1a.81.81 0 1 1 0 1.62h-1a4.44 4.44 0 0 1-1.6 3.13 1 1 0 0 1-.56.17.93.93 0 0 1-.92-.94 1.15 1.15 0 0 1 .38-.75 3.59 3.59 0 0 0 .92-2.43c0-1.44-.68-2-1.37-2-2.28 0-1.22 6.34-5.56 6.34-1.91 0-3.16-1.22-3.39-3.54h-1a.81.81 0 1 1 0-1.62h1a5 5 0 0 1 2.07-3.6.93.93 0 0 1 1.43.81 1 1 0 0 1-.38.76 4 4 0 0 0-1.32 2.85c0 1.58.52 2.34 1.6 2.34 2.52.01 1.35-6.33 5.54-6.33Z"></path><path d="M83.36 0h-35.6a2 2 0 0 0-2 2v76.11a2 2 0 0 0 2 2h35.6a2 2 0 0 0 2-2V2a2 2 0 0 0-2-2ZM61.59 17.24h8.25a2 2 0 1 1 0 4h-8.25a2 2 0 1 1 0-4Zm17.56 22.81a13.59 13.59 0 1 1-13.59-13.58 13.6 13.6 0 0 1 13.59 13.58ZM53.86 17.24h2.06a2 2 0 1 1 0 4h-2.06a2 2 0 1 1 0-4ZM55.92 63h-2.06a2 2 0 1 1 0-4h2.06a2 2 0 1 1 0 4Zm13.92 0h-8.25a2 2 0 1 1 0-4h8.25a2 2 0 1 1 0 4Zm7.73 0h-2.06a2 2 0 1 1 0-4h2.06a2 2 0 1 1 0 4Zm0-41.73h-2.06a2 2 0 1 1 0-4h2.06a2 2 0 1 1 0 4Z"></path></svg>