<svg xmlns="http://www.w3.org/2000/svg" viewBox="0 0 64 64" id="high-demand"><circle cx="27" cy="39" r="4"></circle><path d="M41 39c0-2.21-1.79-4-4-4s-4 1.79-4 4 1.79 4 4 4 4-1.79 4-4zm-4 2c-1.1 0-2-.9-2-2s.9-2 2-2 2 .9 2 2-.9 2-2 2zm20 2h-4c-.88 0-1.74.24-2.5.68-.76-.44-1.62-.68-2.5-.68h-4c-.88 0-1.75.25-2.51.69-.74-.43-1.58-.69-2.49-.69h-4c-1.09 0-2.15.36-3.01 1.02C31.15 43.39 30.13 43 29 43h-4c-.91 0-1.75.26-2.49.69-.76-.44-1.63-.69-2.51-.69h-4c-.88 0-1.74.24-2.5.68-.76-.44-1.62-.68-2.5-.68H7c-2.76 0-5 2.24-5 5v6c0 .55.45 1 1 1h1.12l.89 7.12c.06.5.49.88.99.88h6c.5 0 .93-.38.99-.88l.51-4.06.51 4.06c.06.5.49.88.99.88h6c.5 0 .93-.38.99-.88l.51-4.06.51 4.06c.06.5.49.88.99.88h6c.5 0 .93-.38.99-.88l.89-7.12h.23l.89 7.12c.06.5.49.88.99.88h6c.5 0 .93-.38.99-.88l.51-4.06.51 4.06c.06.5.49.88.99.88h6c.5 0 .93-.38.99-.88l.51-4.06.51 4.06c.06.5.49.88.99.88h6c.5 0 .93-.38.99-.88l.89-7.12h1.12c.55 0 1-.45 1-1v-6c0-2.76-2.24-5-5-5zM20.87 54.97 20.12 61h-4.23L15 53.88c-.06-.5-.49-.88-.99-.88h-1v-5c0-.92.41-1.77 1.12-2.34.54-.43 1.19-.66 1.88-.66h4c.31 0 .61.05.9.15-.57.81-.9 1.79-.9 2.85v6c0 .51.38.91.87.97zM42 53h-1c-.5 0-.93.38-.99.88L39.12 61h-4.23l-.88-7.06V48c0-.9-.26-1.74-.68-2.47.49-.34 1.07-.53 1.68-.53h4c1.65 0 3 1.35 3 3v5zm18 0h-1c-.5 0-.93.38-.99.88L57.12 61h-4.23l-.75-6.03c.49-.07.87-.47.87-.97v-6c0-1.04-.32-2.03-.9-2.85.29-.09.59-.15.9-.15h4c1.65 0 3 1.35 3 3v5z"></path><circle cx="46" cy="39" r="4"></circle><path d="M59 39c0-2.21-1.79-4-4-4s-4 1.79-4 4 1.79 4 4 4 4-1.79 4-4Zm-4 2c-1.1 0-2-.9-2-2s.9-2 2-2 2 .9 2 2-.9 2-2 2Z"></path><circle cx="9" cy="39" r="4"></circle><path d="M22 39c0-2.21-1.79-4-4-4s-4 1.79-4 4 1.79 4 4 4 4-1.79 4-4zm-4 2c-1.1 0-2-.9-2-2s.9-2 2-2 2 .9 2 2-.9 2-2 2zM52.83 8.17A3.962 3.962 0 0 0 50 7h-3.07c-.49-3.39-3.41-6-6.93-6-1.19 0-2.34.32-3.37.89-.76-.39-1.55-.68-2.38-.86-.27-.06-.57 0-.8.16-.23.16-.38.42-.41.7-.06.53-.51.93-1.04.93s-.97-.4-1.04-.93a.984.984 0 0 0-.41-.7.987.987 0 0 0-.8-.16c-1.14.25-2.22.7-3.22 1.33a1.006 1.006 0 0 0-.25 1.47c.19.24.25.54.2.82a6.97 6.97 0 0 0-4.49-1.64c-3.52 0-6.44 2.61-6.93 6h-3.07c-2.21 0-4 1.79-4 4 0 1.07.42 2.07 1.17 2.83.76.76 1.76 1.17 2.83 1.17h14.36c.21.36.2.83-.07 1.17-.18.22-.25.51-.2.79.05.28.21.53.45.68a9.98 9.98 0 0 0 3.22 1.33c.28.06.57 0 .8-.16.23-.16.38-.42.41-.7.06-.53.51-.93 1.04-.93s.97.4 1.04.93a1.005 1.005 0 0 0 .99.89c.07 0 .15 0 .22-.02 1.14-.25 2.22-.7 3.22-1.33a1.006 1.006 0 0 0 .25-1.47c-.33-.42-.3-1.02.07-1.39.37-.38.97-.4 1.39-.07.22.18.51.25.79.2.28-.05.53-.21.68-.45.3-.47.55-.96.77-1.46h8.59c2.21 0 4-1.79 4-4 0-1.07-.42-2.07-1.17-2.83zm-29.94 3.86c-.28.03-.54.18-.7.41-.17.23-.22.52-.16.8.14.6.33 1.19.57 1.75H12c-.53 0-1.03-.21-1.41-.59s-.59-.88-.59-1.41c0-1.1.9-2 2-2h4c.55 0 1-.45 1-1a5.002 5.002 0 0 1 6.62-4.73c-.1.07-.19.16-.26.27a9.98 9.98 0 0 0-1.33 3.22c-.06.28 0 .57.16.8.16.23.42.38.7.41.53.06.93.51.93 1.04s-.4.97-.93 1.04zM32 13.99c-1.65 0-3-1.35-3-3s1.35-3 3-3 3 1.35 3 3-1.35 3-3 3zm18-1h-8.02c0-.2-.05-.39-.16-.55a.984.984 0 0 0-.7-.41c-.53-.06-.93-.51-.93-1.04s.4-.97.93-1.04c.28-.03.54-.18.7-.41.17-.23.22-.52.16-.8-.25-1.14-.7-2.22-1.33-3.22-.15-.24-.4-.4-.68-.45-.28-.04-.57.03-.79.2-.42.33-1.02.3-1.39-.07s-.41-.97-.07-1.39c.08-.11.14-.23.18-.35a4.96 4.96 0 0 1 2.11-.47c2.76 0 5 2.24 5 5 0 .55.45 1 1 1h4c.53 0 1.03.21 1.41.59s.59.88.59 1.41c0 1.1-.9 2-2 2zM8 31h2v2H8zM11 28h2v2h-2zM14 25h2v2h-2zM17 22h2v2h-2zM17 31h2v2h-2zM19 28h2v2h-2zM26 31h2v2h-2zM27 27h2v2h-2zM29 23h2v2h-2zM22 25h2v2h-2zM25 22h2v2h-2z"></path><path d="M20 19h2v2h-2zM54 31h2v2h-2zM51 28h2v2h-2zM48 25h2v2h-2zM45 22h2v2h-2zM45 31h2v2h-2zM43 28h2v2h-2zM36 31h2v2h-2zM35 27h2v2h-2zM33 23h2v2h-2zM40 25h2v2h-2zM37 22h2v2h-2zM42 19h2v2h-2z"></path></svg>